<svg width="205" height="180" viewBox="0 0 205 180" fill="none" xmlns="http://www.w3.org/2000/svg">
<g clip-path="url(#clip0_21_13)">
<path d="M109.479 144.407H107.52C107.404 143.844 107.202 143.349 106.912 142.922C106.628 142.496 106.28 142.138 105.87 141.848C105.464 141.553 105.014 141.332 104.519 141.185C104.024 141.037 103.508 140.964 102.971 140.964C101.992 140.964 101.105 141.211 100.31 141.706C99.5199 142.201 98.8907 142.93 98.4221 143.894C97.9588 144.857 97.7271 146.039 97.7271 147.44C97.7271 148.84 97.9588 150.022 98.4221 150.986C98.8907 151.949 99.5199 152.679 100.31 153.173C101.105 153.668 101.992 153.916 102.971 153.916C103.508 153.916 104.024 153.842 104.519 153.695C105.014 153.547 105.464 153.329 105.87 153.039C106.28 152.744 106.628 152.384 106.912 151.957C107.202 151.525 107.404 151.031 107.52 150.472H109.479C109.331 151.299 109.063 152.039 108.673 152.692C108.284 153.345 107.799 153.9 107.22 154.358C106.641 154.811 105.991 155.156 105.269 155.393C104.553 155.63 103.787 155.748 102.971 155.748C101.592 155.748 100.365 155.411 99.2909 154.737C98.2168 154.063 97.3717 153.105 96.7557 151.862C96.1397 150.62 95.8317 149.146 95.8317 147.44C95.8317 145.734 96.1397 144.26 96.7557 143.017C97.3717 141.775 98.2168 140.816 99.2909 140.142C100.365 139.468 101.592 139.131 102.971 139.131C103.787 139.131 104.553 139.25 105.269 139.487C105.991 139.724 106.641 140.071 107.22 140.529C107.799 140.982 108.284 141.535 108.673 142.188C109.063 142.835 109.331 143.575 109.479 144.407ZM126.291 147.44C126.291 149.146 125.983 150.62 125.367 151.862C124.751 153.105 123.906 154.063 122.832 154.737C121.758 155.411 120.531 155.748 119.151 155.748C117.772 155.748 116.545 155.411 115.471 154.737C114.397 154.063 113.552 153.105 112.936 151.862C112.32 150.62 112.012 149.146 112.012 147.44C112.012 145.734 112.32 144.26 112.936 143.017C113.552 141.775 114.397 140.816 115.471 140.142C116.545 139.468 117.772 139.131 119.151 139.131C120.531 139.131 121.758 139.468 122.832 140.142C123.906 140.816 124.751 141.775 125.367 143.017C125.983 144.26 126.291 145.734 126.291 147.44ZM124.395 147.44C124.395 146.039 124.161 144.857 123.692 143.894C123.229 142.93 122.6 142.201 121.805 141.706C121.015 141.211 120.131 140.964 119.151 140.964C118.172 140.964 117.285 141.211 116.49 141.706C115.7 142.201 115.071 142.93 114.602 143.894C114.139 144.857 113.907 146.039 113.907 147.44C113.907 148.84 114.139 150.022 114.602 150.986C115.071 151.949 115.7 152.679 116.49 153.173C117.285 153.668 118.172 153.916 119.151 153.916C120.131 153.916 121.015 153.668 121.805 153.173C122.6 152.679 123.229 151.949 123.692 150.986C124.161 150.022 124.395 148.84 124.395 147.44ZM142.41 139.353V155.527H140.514L131.701 142.828H131.543V155.527H129.584V139.353H131.48L140.325 152.084H140.483V139.353H142.41ZM159.155 139.353V155.527H157.259L148.446 142.828H148.288V155.527H146.329V139.353H148.224L157.07 152.084H157.228V139.353H159.155ZM163.074 155.527V139.353H172.835V141.09H165.033V146.555H172.33V148.293H165.033V153.789H172.962V155.527H163.074ZM189.381 144.407H187.422C187.306 143.844 187.104 143.349 186.814 142.922C186.53 142.496 186.182 142.138 185.772 141.848C185.366 141.553 184.916 141.332 184.421 141.185C183.926 141.037 183.41 140.964 182.873 140.964C181.894 140.964 181.007 141.211 180.212 141.706C179.422 142.201 178.793 142.93 178.324 143.894C177.861 144.857 177.629 146.039 177.629 147.44C177.629 148.84 177.861 150.022 178.324 150.986C178.793 151.949 179.422 152.679 180.212 153.173C181.007 153.668 181.894 153.916 182.873 153.916C183.41 153.916 183.926 153.842 184.421 153.695C184.916 153.547 185.366 153.329 185.772 153.039C186.182 152.744 186.53 152.384 186.814 151.957C187.104 151.525 187.306 151.031 187.422 150.472H189.381C189.233 151.299 188.965 152.039 188.575 152.692C188.186 153.345 187.701 153.9 187.122 154.358C186.543 154.811 185.893 155.156 185.171 155.393C184.455 155.63 183.689 155.748 182.873 155.748C181.494 155.748 180.267 155.411 179.193 154.737C178.119 154.063 177.274 153.105 176.658 151.862C176.042 150.62 175.734 149.146 175.734 147.44C175.734 145.734 176.042 144.26 176.658 143.017C177.274 141.775 178.119 140.816 179.193 140.142C180.267 139.468 181.494 139.131 182.873 139.131C183.689 139.131 184.455 139.25 185.171 139.487C185.893 139.724 186.543 140.071 187.122 140.529C187.701 140.982 188.186 141.535 188.575 142.188C188.965 142.835 189.233 143.575 189.381 144.407ZM191.661 141.09V139.353H203.792V141.09H198.706V155.527H196.747V141.09H191.661Z" fill="#F9F5EE"/>
<path d="M166.015 0.031992C166.015 0.031992 93.7265 -2.56267 94.3215 60.4958C94.9165 123.554 157.388 120.046 157.388 120.046L188.921 119.465L189.07 97.3802H157.09C157.09 97.3802 120.5 98.5426 119.31 58.4409C118.12 18.3393 164.825 22.4075 164.825 22.4075L164.527 48.2702L188.623 47.9798V0.322747L166.015 0.031992Z" fill="#F9F5EE"/>
<path d="M42.7082 43.7678L42.8617 119.903H67.4442L67.1369 43.6209L42.7082 43.7678Z" fill="#F9F5EE"/>
<path d="M17.7748 0L91.6072 0.106292L91.7136 20.8524L18.0939 20.9587L17.7748 0Z" fill="#F9F5EE"/>
<path d="M103.151 120.308L125.58 120.281L125.553 100.273H103.019L103.151 120.308Z" fill="#A11C18"/>
<path d="M2.83472 139.545V137.741H15.4301V139.545H10.1492V154.535H8.11561V139.545H2.83472ZM17.2957 154.535H15.1636L21.3301 137.741H23.4294L29.5959 154.535H27.4638L22.4453 140.398H22.3141L17.2957 154.535ZM18.0829 147.975H26.6766V149.779H18.0829V147.975ZM32.2117 154.535V137.741H34.2453V152.731H42.0519V154.535H32.2117ZM45.2007 154.535V137.741H55.3361V139.545H47.2344V145.22H54.8113V147.024H47.2344V152.731H55.4673V154.535H45.2007ZM72.3186 137.741V154.535H70.3505L61.1992 141.349H61.0352V154.535H59.0016V137.741H60.9696L70.1537 150.96H70.3177V137.741H72.3186ZM75.4695 139.545V137.741H88.0649V139.545H82.784V154.535H80.7504V139.545H75.4695Z" fill="#F9F5EE"/>
<path d="M0 164.897L0.211718 180L205 179.641L204.99 169.212L0 164.897Z" fill="#A11C18"/>
</g>
<defs>
<clipPath id="clip0_21_13">
<rect width="205" height="180" fill="white"/>
</clipPath>
</defs>
</svg>
