<svg width="458" height="403" viewBox="0 0 458 403" fill="none" xmlns="http://www.w3.org/2000/svg">
<g clip-path="url(#clip0_21_13)">
<path d="M244.591 321.475H240.216C239.957 320.217 239.504 319.111 238.857 318.158C238.222 317.205 237.446 316.405 236.528 315.758C235.622 315.1 234.617 314.606 233.511 314.276C232.405 313.947 231.252 313.782 230.053 313.782C227.865 313.782 225.883 314.335 224.106 315.441C222.342 316.547 220.936 318.176 219.889 320.328C218.854 322.481 218.337 325.122 218.337 328.251C218.337 331.38 218.854 334.02 219.889 336.173C220.936 338.326 222.342 339.955 224.106 341.061C225.883 342.166 227.865 342.719 230.053 342.719C231.252 342.719 232.405 342.554 233.511 342.225C234.617 341.896 235.622 341.408 236.528 340.761C237.446 340.102 238.222 339.296 238.857 338.343C239.504 337.379 239.957 336.273 240.216 335.026H244.591C244.262 336.873 243.662 338.526 242.792 339.984C241.921 341.443 240.839 342.684 239.545 343.707C238.251 344.719 236.799 345.489 235.187 346.019C233.587 346.548 231.876 346.813 230.053 346.813C226.971 346.813 224.23 346.06 221.83 344.554C219.431 343.049 217.543 340.908 216.166 338.132C214.79 335.356 214.102 332.062 214.102 328.251C214.102 324.44 214.79 321.146 216.166 318.37C217.543 315.594 219.431 313.453 221.83 311.947C224.23 310.442 226.971 309.689 230.053 309.689C231.876 309.689 233.587 309.953 235.187 310.483C236.799 311.012 238.251 311.788 239.545 312.812C240.839 313.823 241.921 315.059 242.792 316.517C243.662 317.964 244.262 319.617 244.591 321.475ZM282.152 328.251C282.152 332.062 281.464 335.356 280.088 338.132C278.711 340.908 276.823 343.049 274.424 344.554C272.024 346.06 269.283 346.813 266.201 346.813C263.12 346.813 260.379 346.06 257.979 344.554C255.58 343.049 253.692 340.908 252.315 338.132C250.939 335.356 250.251 332.062 250.251 328.251C250.251 324.44 250.939 321.146 252.315 318.37C253.692 315.594 255.58 313.453 257.979 311.947C260.379 310.442 263.12 309.689 266.201 309.689C269.283 309.689 272.024 310.442 274.424 311.947C276.823 313.453 278.711 315.594 280.088 318.37C281.464 321.146 282.152 324.44 282.152 328.251ZM277.917 328.251C277.917 325.122 277.394 322.481 276.347 320.328C275.312 318.176 273.906 316.547 272.13 315.441C270.366 314.335 268.389 313.782 266.201 313.782C264.014 313.782 262.032 314.335 260.255 315.441C258.491 316.547 257.085 318.176 256.038 320.328C255.003 322.481 254.486 325.122 254.486 328.251C254.486 331.38 255.003 334.02 256.038 336.173C257.085 338.326 258.491 339.955 260.255 341.061C262.032 342.166 264.014 342.719 266.201 342.719C268.389 342.719 270.366 342.166 272.13 341.061C273.906 339.955 275.312 338.326 276.347 336.173C277.394 334.02 277.917 331.38 277.917 328.251ZM318.164 310.183V346.319H313.93L294.238 317.946H293.886V346.319H289.51V310.183H293.744L313.506 338.626H313.859V310.183H318.164ZM355.575 310.183V346.319H351.34L331.649 317.946H331.296V346.319H326.92V310.183H331.155L350.917 338.626H351.27V310.183H355.575ZM364.331 346.319V310.183H386.139V314.065H368.707V326.275H385.01V330.156H368.707V342.437H386.422V346.319H364.331ZM423.104 321.475H418.729C418.47 320.217 418.017 319.111 417.37 318.158C416.735 317.205 415.958 316.405 415.041 315.758C414.135 315.1 413.129 314.606 412.024 314.276C410.918 313.947 409.765 313.782 408.565 313.782C406.377 313.782 404.395 314.335 402.619 315.441C400.855 316.547 399.449 318.176 398.402 320.328C397.367 322.481 396.849 325.122 396.849 328.251C396.849 331.38 397.367 334.02 398.402 336.173C399.449 338.326 400.855 339.955 402.619 341.061C404.395 342.166 406.377 342.719 408.565 342.719C409.765 342.719 410.918 342.554 412.024 342.225C413.129 341.896 414.135 341.408 415.041 340.761C415.958 340.102 416.735 339.296 417.37 338.343C418.017 337.379 418.47 336.273 418.729 335.026H423.104C422.775 336.873 422.175 338.526 421.305 339.984C420.434 341.443 419.352 342.684 418.058 343.707C416.764 344.719 415.311 345.489 413.7 346.019C412.1 346.548 410.389 346.813 408.565 346.813C405.483 346.813 402.743 346.06 400.343 344.554C397.943 343.049 396.055 340.908 394.679 338.132C393.303 335.356 392.615 332.062 392.615 328.251C392.615 324.44 393.303 321.146 394.679 318.37C396.055 315.594 397.943 313.453 400.343 311.947C402.743 310.442 405.483 309.689 408.565 309.689C410.389 309.689 412.1 309.953 413.7 310.483C415.311 311.012 416.764 311.788 418.058 312.812C419.352 313.823 420.434 315.059 421.305 316.517C422.175 317.964 422.775 319.617 423.104 321.475ZM428.199 314.065V310.183H455.301V314.065H443.938V346.319H439.562V314.065H428.199Z" fill="#F9F5EE"/>
<path d="M370.901 0.0715399C370.901 0.0715399 209.399 -5.72533 210.728 135.156C212.057 276.038 351.627 268.201 351.627 268.201H422.409V217.562H350.963C350.963 217.562 269.214 220.159 266.556 130.566C263.897 40.9727 368.243 50.0618 368.243 50.0618V107.194H421.412V0.721129L370.901 0.0715399Z" fill="#F9F5EE"/>
<path d="M95.4164 97.7837L95.7593 267.88H150.68L149.994 97.4553L95.4164 97.7837Z" fill="#F9F5EE"/>
<path d="M39.7115 0L204.664 0.237473L204.902 46.5874L40.4246 46.8248L39.7115 0Z" fill="#F9F5EE"/>
<path d="M230.158 268.726H280.564L280.503 224.023H230.158V268.726Z" fill="#A11C18"/>
<path d="M6.33311 312.613V308.583H34.4731V312.613H22.6748V346.103H18.1314V312.613H6.33311ZM38.641 346.103H33.8777L47.6546 308.583H52.3446L66.1214 346.103H61.3581L50.1461 314.518H49.853L38.641 346.103ZM40.3997 331.446H59.5994V335.477H40.3997V331.446ZM71.9656 346.103V308.583H76.509V342.072H93.95V346.103H71.9656ZM100.985 346.103V308.583H123.629V312.613H105.528V325.291H122.456V329.321H105.528V342.072H123.922V346.103H100.985ZM161.57 308.583V346.103H157.173L136.728 316.644H136.361V346.103H131.818V308.583H136.215L156.734 338.115H157.1V308.583H161.57ZM168.61 312.613V308.583H196.75V312.613H184.951V346.103H180.408V312.613H168.61Z" fill="#F9F5EE"/>
<path d="M0 368.405L0.473008 402.147L458 401.345L457.977 378.045L0 368.405Z" fill="#A11C18"/>
</g>
<defs>
<clipPath id="clip0_21_13">
<rect width="458" height="402.146" fill="white"/>
</clipPath>
</defs>
</svg>
