<svg width="129" height="92" viewBox="0 0 129 92" fill="none" xmlns="http://www.w3.org/2000/svg">
<path d="M104.186 0.0201496C104.186 0.0201496 58.6975 -1.61259 59.0719 38.0681C59.4463 77.7487 98.7576 75.5414 98.7576 75.5414H118.694V61.2783H98.5703C98.5703 61.2783 75.5451 62.0098 74.7963 36.7751C74.0475 11.5404 103.437 14.1004 103.437 14.1004V30.1922H118.413V0.203112L104.186 0.0201496Z" fill="#F9F5EE"/>
<path d="M26.5933 27.5417L26.6899 75.451H42.1589L41.9655 27.4492L26.5933 27.5417Z" fill="#F9F5EE"/>
<path d="M10.9036 0L57.364 0.0668865L57.4309 13.1218L11.1044 13.1887L10.9036 0Z" fill="#F9F5EE"/>
<path d="M64.5447 75.6891H78.742L78.7246 63.0983H64.5447V75.6891Z" fill="#A11C18"/>
<path d="M0 81.9629L0.133227 91.4666L129 91.2407L128.993 84.6782L0 81.9629Z" fill="#A11C18"/>
</svg>
